<svg xmlns="http://www.w3.org/2000/svg" viewBox="0 0 533.62 510.5"><defs><style>.cls-1{fill:#2e2e2e;}</style></defs><g id="Layer_2" data-name="Layer 2"><g id="Layer_1-2" data-name="Layer 1"><polygon class="cls-1" points="221.94 112.17 221.94 415.82 208.44 415.82 208.44 116.25 221.94 112.17"/><path class="cls-1" d="M500.73,418.54l-.82,1.54-1.74,0c-141.89-.6-350.7-3-498.17-3v-1.37H1.92L35,415.57c119-.09,339.44-1,461.43-1.26a279.63,279.63,0,0,0,28.82-87.81A286.09,286.09,0,0,0,527,255.73C512.77,108,381.66-4.21,233.6,3.62A281.34,281.34,0,0,0,78.61,58a283.3,283.3,0,0,1,84.33-44.19c180.18-58.67,367.21,76.42,370.61,265.4A285.67,285.67,0,0,1,500.73,418.54Z"/><polygon class="cls-1" points="295.94 44.34 295.94 121.5 282.44 117.41 282.44 68.18 136.44 112.32 136.44 415.82 122.94 415.82 122.94 96.65 295.94 44.34"/><polygon class="cls-1" points="410.3 316.82 410.3 415.82 235.44 415.82 235.44 110.34 410.3 160.3 410.3 316.82"/><polygon class="cls-1" points="164.94 129.4 164.94 415.82 151.44 415.82 151.44 133.48 164.94 129.4"/><polygon class="cls-1" points="193.94 120.63 193.94 415.82 180.44 415.82 180.44 124.72 193.94 120.63"/><path class="cls-1" d="M126.37,483.45a3.39,3.39,0,0,1,2.4-.95,3.25,3.25,0,0,1,3.3,3.3v16.8a27.36,27.36,0,0,1-8.55,5.8,26,26,0,0,1-10.45,2.1,26.56,26.56,0,0,1-19-7.9,27.91,27.91,0,0,1-5.75-8.55,26,26,0,0,1-2.1-10.45,26.39,26.39,0,0,1,2.1-10.5,26.81,26.81,0,0,1,14.3-14.3,26.39,26.39,0,0,1,10.5-2.1,26.72,26.72,0,0,1,9.1,1.55,25.81,25.81,0,0,1,7.8,4.45,1,1,0,0,1,.4.8,1,1,0,0,1-1.1,1.1,1.33,1.33,0,0,1-.6-.1,24.21,24.21,0,0,0-15.4-5.6h-.2a16.4,16.4,0,0,0-7.85,2,21.15,21.15,0,0,0-6.4,5.3A26,26,0,0,0,94.47,474a29.6,29.6,0,0,0,0,19.2,25.42,25.42,0,0,0,4.35,7.8,21.42,21.42,0,0,0,6.4,5.25,16.4,16.4,0,0,0,7.85,1.95h.1a24,24,0,0,0,6.4-.85,26.2,26.2,0,0,0,5.8-2.35V485.8A3.1,3.1,0,0,1,126.37,483.45Z"/><path class="cls-1" d="M194.62,458.45a3.08,3.08,0,0,1,2.25-.95,3.25,3.25,0,0,1,3.3,3.3v45.6a3.08,3.08,0,0,1-.95,2.25,3.2,3.2,0,0,1-2.35,1,3.24,3.24,0,0,1-3.2-3.2V460.8A3.2,3.2,0,0,1,194.62,458.45Z"/><path class="cls-1" d="M285.77,459.8l16.5,45.4.1.1a4.34,4.34,0,0,1,.1,1.1,3.15,3.15,0,0,1-.9,2.25,3,3,0,0,1-2.3,1,3.29,3.29,0,0,1-1.95-.6,2.91,2.91,0,0,1-1.15-1.6l-5.6-15.4h-20.5L264,508.9a.92.92,0,0,1-1,.7,1,1,0,0,1-1.1-1.1.4.4,0,0,1,.1-.3v-.1l17.6-48.1a2.86,2.86,0,0,1,1.1-1.8,3.15,3.15,0,0,1,2-.7,3,3,0,0,1,1.9.65,4.19,4.19,0,0,1,1.2,1.55Zm-5.4,4.2-9.5,25.9h18.9Z"/><path class="cls-1" d="M381.87,457.5a11.48,11.48,0,0,1,4.65.95,11.85,11.85,0,0,1,3.75,2.6,13.21,13.21,0,0,1,2.55,3.8,11.84,11.84,0,0,1-.9,11,12.45,12.45,0,0,1-4.75,4.35,14.88,14.88,0,0,1,7.15,5.45,15.32,15.32,0,0,1,1.55,14.7,15.66,15.66,0,0,1-3.25,4.8,15.25,15.25,0,0,1-4.85,3.25,14.86,14.86,0,0,1-5.9,1.2h-15.7a3.08,3.08,0,0,1-2.25-1,3,3,0,0,1-.95-2.25V460.8a3.17,3.17,0,0,1,.95-2.35,3.08,3.08,0,0,1,2.25-.95Zm-12.4,2.2v19.5h12.4a4,4,0,0,0,1.95-.6,6.54,6.54,0,0,0,1.95-1.8,10.45,10.45,0,0,0,1.5-3.05,15.35,15.35,0,0,0,0-8.5,11.19,11.19,0,0,0-1.5-3.1,6.37,6.37,0,0,0-1.95-1.85,4,4,0,0,0-1.95-.6Zm12.4,47.7a6.29,6.29,0,0,0,3.4-1,9,9,0,0,0,2.75-2.8,16.62,16.62,0,0,0,1.85-4.15,18.57,18.57,0,0,0,0-10.1A16.62,16.62,0,0,0,388,485.2a9,9,0,0,0-2.75-2.8,6.29,6.29,0,0,0-3.4-1h-12.4v26Z"/><line class="cls-1" x1="84.38" y1="64.02" x2="83.97" y2="63.67"/></g></g></svg>